HIERARCHY
ROOT Hips
{
	OFFSET 0.000000 0.000000 0.000000
	CHANNELS 6 Xposition Yposition Zposition Xrotation Yrotation Zrotation
	JOINT LeftUpLeg_virtual
	{
		OFFSET 0.000000 0.000000 0.000000
		CHANNELS 3 Xrotation Yrotation Zrotation
		JOINT LeftUpLeg
		{
			OFFSET 13.026900 -6.336304 -1.092800
			CHANNELS 3 Xrotation Yrotation Zrotation
			JOINT LeftLeg
			{
				OFFSET 0.524474 -46.096886 9.782700
				CHANNELS 3 Xrotation Yrotation Zrotation
				JOINT LeftFoot
				{
					OFFSET -0.524474 -53.427422 -12.948200
					CHANNELS 3 Xrotation Yrotation Zrotation
					JOINT LeftToeBase
					{
						OFFSET 0.192200 -14.009700 16.364100
						CHANNELS 3 Xrotation Yrotation Zrotation
						JOINT LeftToe_End
						{
							OFFSET -1.784700 -0.561700 9.474800
							CHANNELS 3 Xrotation Yrotation Zrotation
							End Site
							{
								OFFSET 0 0 0
							}
						}
					}
				}
			}
		}
	}
	JOINT RightUpLeg_virtual
	{
		OFFSET 0.000000 0.000000 0.000000
		CHANNELS 3 Xrotation Yrotation Zrotation
		JOINT RightUpLeg
		{
			OFFSET -12.883000 -6.336304 -1.092800
			CHANNELS 3 Xrotation Yrotation Zrotation
			JOINT RightLeg
			{
				OFFSET -0.524587 -46.096825 9.782800
				CHANNELS 3 Xrotation Yrotation Zrotation
				JOINT RightFoot
				{
					OFFSET 0.524587 -53.427383 -12.948300
					CHANNELS 3 Xrotation Yrotation Zrotation
					JOINT RightToeBase
					{
						OFFSET -0.192200 -14.009700 16.364100
						CHANNELS 3 Xrotation Yrotation Zrotation
						JOINT RightToe_End
						{
							OFFSET 1.784700 -0.561700 9.474800
							CHANNELS 3 Xrotation Yrotation Zrotation
							End Site
							{
								OFFSET 0 0 0
							}
						}
					}
				}
			}
		}
	}
	JOINT Spine_virtual
	{
		OFFSET 0.000000 0.000000 0.000000
		CHANNELS 3 Xrotation Yrotation Zrotation
		JOINT Spine
		{
			OFFSET 0.072000 7.257294 -0.789700
			CHANNELS 3 Xrotation Yrotation Zrotation
			JOINT Spine1
			{
				OFFSET 0.000000 12.508769 -0.658067
				CHANNELS 3 Xrotation Yrotation Zrotation
				JOINT Spine1_split
				{
					OFFSET 0.000000 12.508769 -0.658067
					CHANNELS 3 Xrotation Yrotation Zrotation
					JOINT Spine2
					{
						OFFSET 0.000000 12.508769 -0.658067
						CHANNELS 3 Xrotation Yrotation Zrotation
						JOINT Neck_virtual
						{
							OFFSET 0.000000 0.000000 0.000000
							CHANNELS 3 Xrotation Yrotation Zrotation
							JOINT Neck
							{
								OFFSET 0.000000 14.033295 7.520400
								CHANNELS 3 Xrotation Yrotation Zrotation
								JOINT Head
								{
									OFFSET 0.000000 8.198502 5.703100
									CHANNELS 3 Xrotation Yrotation Zrotation
									JOINT HeadTop_End
									{
										OFFSET 0.000000 17.760803 13.332701
										CHANNELS 3 Xrotation Yrotation Zrotation
										End Site
										{
											OFFSET 0 0 0
										}
									}
								}
							}
						}
						JOINT LeftShoulder_virtual
						{
							OFFSET 0.000000 0.000000 0.000000
							CHANNELS 3 Xrotation Yrotation Zrotation
							JOINT LeftShoulder
							{
								OFFSET 6.292450 5.785301 -0.669000
								CHANNELS 3 Xrotation Yrotation Zrotation
								JOINT LeftShoulder_split
								{
									OFFSET 6.292450 5.785301 -0.669000
									CHANNELS 3 Xrotation Yrotation Zrotation
									JOINT LeftArm
									{
										OFFSET 13.907140 -6.093903 1.965100
										CHANNELS 3 Xrotation Yrotation Zrotation
										JOINT LeftForeArm
										{
											OFFSET 34.140198 0.000000 0.000000
											CHANNELS 3 Xrotation Yrotation Zrotation
											JOINT LeftHand
											{
												OFFSET 40.960209 0.000000 0.000000
												CHANNELS 3 Xrotation Yrotation Zrotation
												End Site
												{
													OFFSET 0 0 0
												}
											}
										}
									}
								}
							}
						}
						JOINT RightShoulder_virtual
						{
							OFFSET 0.000000 0.000000 0.000000
							CHANNELS 3 Xrotation Yrotation Zrotation
							JOINT RightShoulder
							{
								OFFSET -6.292450 5.785301 -0.669000
								CHANNELS 3 Xrotation Yrotation Zrotation
								JOINT RightShoulder_split
								{
									OFFSET -6.292450 5.785301 -0.669000
									CHANNELS 3 Xrotation Yrotation Zrotation
									JOINT RightArm
									{
										OFFSET -13.907140 -6.093903 1.965100
										CHANNELS 3 Xrotation Yrotation Zrotation
										JOINT RightForeArm
										{
											OFFSET -34.140198 0.000000 0.000000
											CHANNELS 3 Xrotation Yrotation Zrotation
											JOINT RightHand
											{
												OFFSET -40.960209 0.000000 0.000000
												CHANNELS 3 Xrotation Yrotation Zrotation
												End Site
												{
													OFFSET 0 0 0
												}
											}
										}
									}
								}
							}
						}
					}
				}
			}
		}
	}
}
MOTION
Frames: 7
Frame Time: 0.03333333
-0.043287 99.616570 -10.446178 0.000000 0.000000 0.000000 11.581746 -55.210236 12.044138 -39.868900 12.534499 24.187324 34.928095 -9.148431 0.571296 0.150143 2.791183 -15.019333 -0.226418 -3.814076 0.667690 0.000000 0.000000 0.000000 9.688616 -52.466709 10.480246 -31.469294 -14.504634 -26.489234 34.707043 14.352490 -3.183867 -2.490139 -17.384025 27.802126 6.370679 6.450457 -10.302201 0.000000 0.000000 0.000000 3.134638 -48.607868 6.359549 16.173820 3.602040 -1.981039 2.458618 -4.260334 -1.268566 0.209519 0.155029 -0.021429 0.000000 0.000000 0.000000 3.336607 -0.986357 -1.900313 5.410192 4.182445 2.685396 7.457596 37.688738 -12.440798 0.000000 0.000000 0.000000 3.170891 -3.405033 -2.693544 6.221426 -3.115936 -14.852458 -1.437364 -4.219162 1.423186 -41.479404 17.966717 -23.332305 9.205853 -32.996087 2.475953 0.000000 0.000000 0.000000 5.018207 -2.118358 -1.540939 -3.140833 0.438843 8.347395 4.323121 4.773264 1.597975 2.379185 -8.641561 51.934327 -12.607750 28.437525 10.675624 0.000000 0.000000 0.000000 
-0.544560 100.589134 -8.233204 0.000000 0.000000 0.000000 11.521679 -55.078762 11.494604 -39.821205 13.266731 24.433825 35.592710 -9.594234 0.860067 0.096726 2.679574 -15.727052 -0.697353 -3.910156 0.954766 0.000000 0.000000 0.000000 10.695467 -52.791615 10.651911 -31.003625 -14.559417 -25.978932 34.174425 13.964445 -3.087438 -1.578075 -17.409075 27.919047 5.511533 6.414835 -10.014046 0.000000 0.000000 0.000000 4.142930 -48.750701 6.434248 15.657174 3.465424 -1.807142 2.319376 -4.337848 -1.241949 0.118147 0.151995 -0.052228 0.000000 0.000000 0.000000 3.330092 -1.020345 -1.870007 5.154926 4.210635 2.744860 6.977619 38.288005 -12.833699 0.000000 0.000000 0.000000 3.167432 -3.458433 -2.655318 6.169047 -3.469960 -14.401391 -1.767974 -4.169278 1.805415 -42.201287 18.268492 -22.616855 9.006868 -33.606832 2.590132 0.000000 0.000000 0.000000 5.027340 -2.136287 -1.529694 -3.245218 0.975687 8.661059 3.643430 3.858056 1.037077 0.252058 -9.069122 51.065862 -12.414244 27.199330 10.456489 0.000000 0.000000 0.000000 
-1.077307 101.783012 -5.535999 0.000000 0.000000 0.000000 11.804334 -54.932391 11.061059 -38.890824 13.970586 24.137767 36.281593 -10.101221 1.031570 -1.168246 2.681462 -15.777539 -1.502255 -4.027057 1.423320 0.000000 0.000000 0.000000 11.887664 -52.851171 10.767899 -30.756209 -14.047346 -25.041813 34.281030 13.302040 -3.008309 -1.164661 -18.020112 27.126096 4.134085 6.388059 -9.361730 0.000000 0.000000 0.000000 5.726194 -48.811954 6.703990 14.837864 3.281791 -1.492003 2.144682 -4.549797 -1.154632 0.044900 0.190525 -0.037140 0.000000 0.000000 0.000000 3.363245 -1.238765 -1.723729 4.705059 4.529555 2.546698 6.168507 40.290804 -13.812874 0.000000 0.000000 0.000000 3.100506 -3.652965 -2.504478 6.054944 -4.017657 -13.915883 -1.832772 -4.012325 1.938853 -43.381612 18.275802 -21.551561 9.252505 -33.344604 2.959098 0.000000 0.000000 0.000000 4.915723 -2.331198 -1.412992 -3.383094 1.717895 9.239433 2.997956 2.858025 0.858740 -3.067095 -9.221368 49.494085 -12.258053 24.790467 10.283837 0.000000 0.000000 0.000000 
-1.537372 102.599762 -2.728096 0.000000 0.000000 0.000000 12.357209 -54.740865 10.806081 -37.526097 14.464374 23.411467 37.431916 -10.497056 1.102395 -3.667444 2.915768 -14.928266 -1.736730 -4.110648 1.763394 0.000000 0.000000 0.000000 13.131239 -52.742010 10.907462 -31.123512 -13.081156 -23.841918 34.932787 12.625637 -2.984163 -1.546335 -18.934826 25.708118 2.785749 6.344383 -8.580515 0.000000 0.000000 0.000000 7.512774 -48.711393 7.099788 13.934413 3.056882 -1.086056 1.956426 -4.872133 -1.020033 0.032583 0.231868 0.003726 0.000000 0.000000 0.000000 3.416434 -1.610621 -1.497198 4.161495 5.069338 2.089551 5.335007 43.349841 -15.149317 0.000000 0.000000 0.000000 2.960623 -3.967522 -2.270050 5.888836 -4.731009 -13.460826 -1.830867 -3.847329 1.870913 -44.872717 17.998571 -20.480380 9.994541 -32.341646 3.651402 0.000000 0.000000 0.000000 4.728035 -2.686739 -1.237559 -3.552716 2.463905 10.016942 2.575460 2.099326 1.008371 -6.661280 -8.848152 47.724458 -12.236976 22.264583 10.270544 0.000000 0.000000 0.000000 
-1.902302 102.704765 -0.127182 0.000000 0.000000 0.000000 13.231345 -54.281730 10.841593 -36.514232 14.555370 22.517827 39.473361 -10.887745 1.166691 -6.886878 3.216119 -13.539318 -1.079414 -4.116445 1.839749 0.000000 0.000000 0.000000 14.311059 -52.300978 11.071699 -32.347892 -11.932819 -22.560753 36.378236 12.229064 -3.125719 -2.771803 -19.671708 24.370516 1.519714 6.319257 -7.942574 0.000000 0.000000 0.000000 9.403701 -48.456186 7.629997 13.109363 2.809212 -0.641952 1.774884 -5.257185 -0.862103 0.048868 0.250951 0.008492 0.000000 0.000000 0.000000 3.428929 -2.073937 -1.267859 3.638035 5.744472 1.348903 4.799162 46.898145 -16.508205 0.000000 0.000000 0.000000 2.790049 -4.361781 -2.010025 5.688509 -5.505896 -13.024518 -1.789091 -3.937085 1.654156 -46.614525 17.377190 -19.617294 11.261112 -30.902641 4.759661 0.000000 0.000000 0.000000 4.501173 -3.161155 -1.059389 -3.751174 2.969563 10.868515 2.391922 1.659208 1.116845 -9.676041 -8.113609 46.280283 -12.407366 20.505527 10.436412 0.000000 0.000000 0.000000 
-2.229788 101.698151 2.056103 0.000000 0.000000 0.000000 14.438967 -53.452657 11.201748 -36.559574 13.917841 21.787212 42.640547 -11.595951 1.439815 -10.073522 3.285971 -12.275152 -0.313622 -4.064249 1.874880 0.000000 0.000000 0.000000 15.274094 -51.580137 11.297199 -34.358720 -10.907325 -21.294768 38.950264 12.316438 -3.513935 -4.683931 -19.973189 23.692302 0.436781 6.323408 -7.611953 0.000000 0.000000 0.000000 11.204361 -47.801584 8.234320 12.448515 2.573520 -0.242988 1.604553 -5.652869 -0.729479 0.110801 0.237304 0.005223 0.000000 0.000000 0.000000 3.378731 -2.568127 -1.100659 3.204245 6.494604 0.333891 4.607582 50.375814 -17.515786 0.000000 0.000000 0.000000 2.622374 -4.781687 -1.787373 5.484082 -6.246366 -12.620106 -1.740924 -4.152457 1.307341 -48.554353 16.413389 -18.987245 12.975377 -29.291348 6.274362 0.000000 0.000000 0.000000 4.301881 -3.679899 -0.938905 -3.964768 3.089787 11.610782 2.510982 1.561787 1.314093 -11.557462 -7.238920 45.453727 -12.770157 19.871206 10.721017 0.000000 0.000000 0.000000 
-2.662262 99.650452 3.770035 0.000000 0.000000 0.000000 15.728018 -52.133898 11.798320 -37.816254 12.438975 21.303647 46.626249 -12.768588 2.020303 -12.700313 3.103544 -11.629365 -0.008134 -4.001207 1.892555 0.000000 0.000000 0.000000 16.178801 -50.493106 11.723547 -36.998462 -10.266562 -20.238754 42.776085 12.852182 -4.212464 -7.334489 -19.881038 23.696016 -0.292244 6.360285 -7.610875 0.000000 0.000000 0.000000 12.940988 -46.625474 8.925363 12.010338 2.368086 0.056953 1.445376 -6.042276 -0.674722 0.165385 0.206772 0.009457 0.000000 0.000000 0.000000 3.254932 -3.035952 -1.037990 2.829498 7.239916 -0.854624 4.523052 53.445353 -17.919621 0.000000 0.000000 0.000000 2.470182 -5.179136 -1.674470 5.301954 -6.915187 -12.170093 -1.818860 -4.290022 0.947852 -50.854327 15.216352 -18.370977 14.909017 -27.470522 8.037098 0.000000 0.000000 0.000000 4.183803 -4.159516 -0.920257 -4.161553 2.836685 12.190622 2.728843 1.738599 1.606187 -12.542095 -6.569963 45.235882 -13.331298 20.229011 11.021259 0.000000 0.000000 0.000000 
